<?xml version="1.0" encoding="iso-8859-1"?>
<!-- Generator: Adobe Illustrator 19.0.0, SVG Export Plug-In . SVG Version: 6.00 Build 0)  -->
<svg version="1.1" id="Capa_1" xmlns="http://www.w3.org/2000/svg" xmlns:xlink="http://www.w3.org/1999/xlink" x="0px" y="0px"
	 viewBox="0 0 512 512" style="enable-background:new 0 0 512 512;" xml:space="preserve">
<polygon style="fill:#EBEBEC;" points="75.48,156.301 75.48,478.057 436.521,478.057 436.521,156.301 256,95.587 "/>
<polygon style="fill:#CACACD;" points="255.999,478.057 436.521,478.057 436.521,156.301 256,95.587 "/>
<polygon style="fill:#C3EA21;" points="256,33.931 0,163.19 36.399,235.277 255.999,124.396 475.602,235.277 512,163.19 "/>
<polygon style="fill:#8ADB53;" points="256,33.931 255.999,124.396 475.602,235.277 512,163.19 "/>
<rect x="241" y="328.199" style="fill:#4FC16E;" width="30" height="149.87"/>
<path style="fill:#C3EA21;" d="M256,402.263c0,0,58.826-39.462,58.826-101.97S256,198.323,256,198.323s-58.826,39.462-58.826,101.97
	S256,402.263,256,402.263z"/>
<path style="fill:#8ADB53;" d="M256,402.263c0,0,58.826-39.462,58.826-101.97S256,198.323,256,198.323V402.263z"/>
<g>
</g>
<g>
</g>
<g>
</g>
<g>
</g>
<g>
</g>
<g>
</g>
<g>
</g>
<g>
</g>
<g>
</g>
<g>
</g>
<g>
</g>
<g>
</g>
<g>
</g>
<g>
</g>
<g>
</g>
</svg>
